General information:

Format                           : MPEG-4
Format profile                   : QuickTime
Codec ID                         : qt  
File size                        : 148 MiB
Duration                         : 2mn 10s
Overall bit rate                 : 9 532 Kbps
Movie name                       : The Dark Knight Rises
Movie name/More                  : In theaters 2012
Writing library                  : Apple QuickTime 7.6.0


Video
ID                               : 1
Format                           : AVC
Format/Info                      : Advanced Video Codec
Format profile                   : Main@L4.1
Format settings, CABAC           : No
Format settings, ReFrames        : 2 frames
Format settings, GOP             : M=2, N=60
Codec ID                         : avc1
Codec ID/Info                    : Advanced Video Coding
Duration                         : 2mn 10s
Bit rate mode                    : Variable
Bit rate                         : 9 429 Kbps
Width                            : 1 920 pixels
Height                           : 816 pixels
Display aspect ratio             : 2.35:1
Frame rate mode                  : Constant
Frame rate                       : 23.976 fps
Color space                      : YUV
Chroma subsampling               : 4:2:0
Bit depth                        : 8 bits
Scan type                        : Progressive
Bits/(Pixel*Frame)               : 0.251
Stream size                      : 146 MiB (99%)
Language                         : English
Color primaries                  : BT.709-5, BT.1361, IEC 61966-2-4, SMPTE RP177
Transfer characteristics         : BT.709-5, BT.1361
Matrix coefficients              : BT.709-5, BT.1361, IEC 61966-2-4 709, SMPTE RP177

Audio
ID                               : 2
Format                           : AAC
Format/Info                      : Advanced Audio Codec
Format profile                   : LC
Codec ID                         : 40
Duration                         : 2mn 10s
Bit rate mode                    : Constant
Bit rate                         : 96.0 Kbps
Channel(s)                       : 2 channels
Channel positions                : Front: L R
Sampling rate                    : 44.1 KHz
Compression mode                 : Lossy
Stream size                      : 1.52 MiB (1%)
Language                         : English



This Is My First Upload please comment.